<svg width="28" height="28" viewBox="0 0 24 24" fill="none" xmlns="http://www.w3.org/2000/svg">
<path d="M19.3424 16.176L15.8416 15.4736C15.4704 15.3984 15.2 15.0688 15.2 14.6896V13.776C18.696 13.4432 19.2 12.728 19.2 12C19.2 9.848 17.7696 4.8512 17.5328 4.0384C17.504 2.7824 17.2736 2.0752 16.6992 1.4576C16.2928 1.0176 15.696 0.9152 15.2144 0.8336C15.0256 0.8 14.7648 0.7568 14.6688 0.704C13.816 0.2416 12.9728 0.0192 11.9664 0C9.85919 0.0864 7.26879 1.4272 6.38239 3.8784C6.31839 4.1072 4.79999 9.5184 4.79999 12C4.79999 13.0352 5.97119 13.5808 8.79999 13.8304V14.6896C8.79999 15.0688 8.52959 15.3984 8.15679 15.4736L4.66079 16.1744C2.42399 16.6144 0.799988 18.5936 0.799988 20.88V22.4C0.799988 23.2816 1.51839 24 2.39999 24H21.6C22.4816 24 23.2 23.2816 23.2 22.4V20.88C23.2 18.5936 21.576 16.6144 19.3424 16.176Z" fill="black"/>
</svg>
