<?xml version="1.0" standalone="no"?>
<!DOCTYPE svg PUBLIC "-//W3C//DTD SVG 20010904//EN"
 "http://www.w3.org/TR/2001/REC-SVG-20010904/DTD/svg10.dtd">
<svg version="1.0" xmlns="http://www.w3.org/2000/svg"
 width="800.000000pt" height="780.000000pt" viewBox="0 0 528.000000 473.000000"
 preserveAspectRatio="xMidYMid meet">

<g transform="translate(0.000000,473.000000) scale(0.100000,-0.100000)"
fill="#2F3061" stroke="none">
<path d="M882 4004 c-77 -20 -151 -58 -225 -114 -70 -53 -101 -88 -138 -160
l-24 -45 0 -900 0 -900 27 -55 c53 -108 145 -179 297 -229 35 -12 77 -21 93
-21 21 0 28 -5 28 -19 0 -14 -101 -412 -125 -491 -19 -62 56 -23 730 381 l190
114 1070 5 1070 5 70 25 c92 32 180 93 222 154 66 96 64 58 61 1047 l-3 894
-29 63 c-33 71 -121 160 -203 204 -111 61 -32 58 -1613 57 -1217 0 -1453 -3
-1498 -15z m1608 -936 c51 -26 70 -42 88 -75 89 -164 -33 -373 -218 -373 -108
0 -195 67 -235 181 -19 53 -19 94 1 151 16 49 80 132 94 123 10 -6 61 15 56
24 -2 3 30 5 72 4 64 -2 87 -8 142 -35z m-960 22 c83 -15 150 -115 150 -221
-1 -90 -65 -189 -148 -226 -88 -41 -197 -24 -265 39 -46 43 -81 127 -81 193
-1 164 143 254 344 215z m1855 -1 c194 -53 205 -346 16 -441 -94 -48 -218 -30
-279 40 -93 106 -106 229 -35 327 53 71 187 104 298 74z m458 -1496 c-7 -2
-19 -2 -25 0 -7 3 -2 5 12 5 14 0 19 -2 13 -5z"/>
<path d="M4478 2384 l-3 -720 -37 -76 c-44 -89 -101 -151 -166 -181 l-47 -22
-1239 0 -1238 0 4 -71 c11 -169 147 -321 332 -370 41 -11 227 -14 980 -14
l929 0 166 -97 c91 -53 237 -138 323 -190 87 -51 164 -96 172 -99 21 -8 14 38
-32 226 l-38 155 62 12 c77 14 110 31 158 80 46 47 70 91 90 170 14 53 16 166
16 870 0 871 0 862 -52 939 -14 20 -48 46 -86 66 -57 29 -75 32 -178 37 l-113
6 -3 -721z"/>
</g>
</svg>
